<mxfile host="app.diagrams.net" modified="2024-06-02T07:41:49.830Z" agent="Mozilla/5.0 (Windows NT 10.0; Win64; x64) AppleWebKit/537.36 (KHTML, like Gecko) Chrome/125.0.0.0 Safari/537.36" etag="iQbcxp2WqgfJYK4AktL0" version="24.4.10" type="github">
  <diagram name="Page-1" id="N3O5ruYz2lQSkYvqJKZj">
    <mxGraphModel dx="2868" dy="1492" grid="1" gridSize="10" guides="1" tooltips="1" connect="1" arrows="1" fold="1" page="1" pageScale="1" pageWidth="827" pageHeight="1169" background="none" math="0" shadow="0">
      <root>
        <mxCell id="0" />
        <mxCell id="1" parent="0" />
      </root>
    </mxGraphModel>
  </diagram>
</mxfile>
